<mxfile host="65bd71144e">
    <diagram name="NEW MSc User Experience (UX)" id="DKDKvVT1Q9gt-SyOUMTg">
        <mxGraphModel dx="2162" dy="595" grid="1" gridSize="8" guides="1" tooltips="1" connect="1" arrows="1" fold="1" page="1" pageScale="1" pageWidth="827" pageHeight="1169" math="0" shadow="0">
            <root>
                <mxCell id="0"/>
                <mxCell id="1" parent="0"/>
                <mxCell id="sExQ2e1FXWfIQ1LsxVie-1" value="User Research (COM740)" style="rounded=1;whiteSpace=wrap;html=1;fillColor=#dae8fc;strokeColor=#6c8ebf;fontSize=23;" parent="1" vertex="1">
                    <mxGeometry x="-552" y="184" width="350" height="64" as="geometry"/>
                </mxCell>
                <mxCell id="sExQ2e1FXWfIQ1LsxVie-3" value="&lt;span style=&quot;color: rgb(0, 0, 0);&quot;&gt;Interactive Design&amp;nbsp;&lt;/span&gt;(COM741)" style="rounded=1;whiteSpace=wrap;html=1;fillColor=#dae8fc;strokeColor=#6c8ebf;fontSize=23;" parent="1" vertex="1">
                    <mxGeometry x="-192" y="184" width="352" height="64" as="geometry"/>
                </mxCell>
                <mxCell id="sExQ2e1FXWfIQ1LsxVie-5" value="&lt;span style=&quot;color: rgb(0, 0, 0);&quot;&gt;Visual Design&lt;/span&gt;&amp;nbsp;(COM739)" style="rounded=1;whiteSpace=wrap;html=1;fillColor=#d5e8d4;strokeColor=#82b366;fontSize=23;" parent="1" vertex="1">
                    <mxGeometry x="-192" y="104" width="352" height="64" as="geometry"/>
                </mxCell>
                <mxCell id="sExQ2e1FXWfIQ1LsxVie-6" value="Dissertation&amp;nbsp; (60 Credits)" style="rounded=1;whiteSpace=wrap;html=1;fillColor=#e1d5e7;strokeColor=#9673a6;fontSize=23;" parent="1" vertex="1">
                    <mxGeometry x="-552" y="264" width="712" height="64" as="geometry"/>
                </mxCell>
                <mxCell id="sExQ2e1FXWfIQ1LsxVie-13" value="Trimester 2" style="rounded=1;whiteSpace=wrap;html=1;fillColor=#dae8fc;strokeColor=#6c8ebf;fontSize=23;" parent="1" vertex="1">
                    <mxGeometry x="-752" y="184" width="190" height="64" as="geometry"/>
                </mxCell>
                <mxCell id="sExQ2e1FXWfIQ1LsxVie-14" value="Trimester 1" style="rounded=1;whiteSpace=wrap;html=1;fillColor=#d5e8d4;strokeColor=#82b366;fontSize=23;" parent="1" vertex="1">
                    <mxGeometry x="-752" y="104" width="190" height="64" as="geometry"/>
                </mxCell>
                <mxCell id="sExQ2e1FXWfIQ1LsxVie-15" value="Trimester 3" style="rounded=1;whiteSpace=wrap;html=1;fillColor=#e1d5e7;strokeColor=#9673a6;fontSize=23;" parent="1" vertex="1">
                    <mxGeometry x="-752" y="264" width="190" height="64" as="geometry"/>
                </mxCell>
                <mxCell id="sExQ2e1FXWfIQ1LsxVie-16" value="&lt;font style=&quot;font-size: 41px;&quot;&gt;MSc User Experience (UX)&amp;nbsp; - 30 Credits&lt;/font&gt;" style="text;html=1;align=center;verticalAlign=middle;resizable=0;points=[];autosize=1;strokeColor=none;fillColor=none;" parent="1" vertex="1">
                    <mxGeometry x="-752" y="24" width="744" height="72" as="geometry"/>
                </mxCell>
                <mxCell id="3dE9ja19RSsRKpInZR6L-1" value="&lt;font style=&quot;font-size: 23px; color: rgb(0, 0, 0);&quot;&gt;Computer Fundamentals &lt;br&gt;&amp;amp; Problem Solving (COM732)&lt;/font&gt;" style="rounded=1;whiteSpace=wrap;html=1;fillColor=#d5e8d4;strokeColor=#82b366;fontSize=23;" vertex="1" parent="1">
                    <mxGeometry x="-554" y="104" width="352" height="64" as="geometry"/>
                </mxCell>
            </root>
        </mxGraphModel>
    </diagram>
    <diagram name="NEW MSc Cyber Security" id="QTLhh60AcKem9MkUxMja">
        <mxGraphModel dx="2429" dy="714" grid="1" gridSize="8" guides="1" tooltips="1" connect="1" arrows="1" fold="1" page="1" pageScale="1" pageWidth="827" pageHeight="1169" math="0" shadow="0">
            <root>
                <mxCell id="DzPgwqu00lyj8pnYnN-O-0"/>
                <mxCell id="DzPgwqu00lyj8pnYnN-O-1" parent="DzPgwqu00lyj8pnYnN-O-0"/>
                <mxCell id="DzPgwqu00lyj8pnYnN-O-2" value="Cybersecurity &lt;br&gt;Operations COM737" style="rounded=1;whiteSpace=wrap;html=1;fillColor=#dae8fc;strokeColor=#6c8ebf;fontSize=23;" vertex="1" parent="DzPgwqu00lyj8pnYnN-O-1">
                    <mxGeometry x="-552" y="184" width="350" height="64" as="geometry"/>
                </mxCell>
                <mxCell id="DzPgwqu00lyj8pnYnN-O-3" value="&lt;span style=&quot;color: rgb(0, 0, 0);&quot;&gt;Interactive Design&amp;nbsp;&lt;/span&gt;(COM741)" style="rounded=1;whiteSpace=wrap;html=1;fillColor=#dae8fc;strokeColor=#6c8ebf;fontSize=23;" vertex="1" parent="DzPgwqu00lyj8pnYnN-O-1">
                    <mxGeometry x="-192" y="184" width="352" height="64" as="geometry"/>
                </mxCell>
                <mxCell id="DzPgwqu00lyj8pnYnN-O-4" value="&lt;font style=&quot;font-size: 23px; color: rgb(0, 0, 0);&quot;&gt;Computer Fundamentals &lt;br&gt;&amp;amp; Problem Solving (COM732)&lt;/font&gt;" style="rounded=1;whiteSpace=wrap;html=1;fillColor=#d5e8d4;strokeColor=#82b366;fontSize=23;" vertex="1" parent="DzPgwqu00lyj8pnYnN-O-1">
                    <mxGeometry x="-554" y="104" width="352" height="64" as="geometry"/>
                </mxCell>
                <mxCell id="DzPgwqu00lyj8pnYnN-O-5" value="&lt;font style=&quot;font-size: 23px;&quot; color=&quot;#000000&quot;&gt;Foundations of &lt;br&gt;Cyber Security COM736&lt;/font&gt;" style="rounded=1;whiteSpace=wrap;html=1;fillColor=#d5e8d4;strokeColor=#82b366;fontSize=23;" vertex="1" parent="DzPgwqu00lyj8pnYnN-O-1">
                    <mxGeometry x="-192" y="104" width="352" height="64" as="geometry"/>
                </mxCell>
                <mxCell id="DzPgwqu00lyj8pnYnN-O-6" value="Dissertation&amp;nbsp; (60 Credits)" style="rounded=1;whiteSpace=wrap;html=1;fillColor=#e1d5e7;strokeColor=#9673a6;fontSize=23;" vertex="1" parent="DzPgwqu00lyj8pnYnN-O-1">
                    <mxGeometry x="-552" y="264" width="712" height="64" as="geometry"/>
                </mxCell>
                <mxCell id="DzPgwqu00lyj8pnYnN-O-7" value="Trimester 2" style="rounded=1;whiteSpace=wrap;html=1;fillColor=#dae8fc;strokeColor=#6c8ebf;fontSize=23;" vertex="1" parent="DzPgwqu00lyj8pnYnN-O-1">
                    <mxGeometry x="-752" y="184" width="190" height="64" as="geometry"/>
                </mxCell>
                <mxCell id="DzPgwqu00lyj8pnYnN-O-8" value="Trimester 1" style="rounded=1;whiteSpace=wrap;html=1;fillColor=#d5e8d4;strokeColor=#82b366;fontSize=23;" vertex="1" parent="DzPgwqu00lyj8pnYnN-O-1">
                    <mxGeometry x="-752" y="104" width="190" height="64" as="geometry"/>
                </mxCell>
                <mxCell id="DzPgwqu00lyj8pnYnN-O-9" value="Trimester 3" style="rounded=1;whiteSpace=wrap;html=1;fillColor=#e1d5e7;strokeColor=#9673a6;fontSize=23;" vertex="1" parent="DzPgwqu00lyj8pnYnN-O-1">
                    <mxGeometry x="-752" y="264" width="190" height="64" as="geometry"/>
                </mxCell>
                <mxCell id="DzPgwqu00lyj8pnYnN-O-10" value="&lt;font style=&quot;font-size: 41px;&quot;&gt;MSc Cyber Security&amp;nbsp; - 30 Credits&lt;/font&gt;" style="text;html=1;align=center;verticalAlign=middle;resizable=0;points=[];autosize=1;strokeColor=none;fillColor=none;" vertex="1" parent="DzPgwqu00lyj8pnYnN-O-1">
                    <mxGeometry x="-752" y="24" width="616" height="72" as="geometry"/>
                </mxCell>
            </root>
        </mxGraphModel>
    </diagram>
    <diagram name="Copy of NEW MSc Cyber Security" id="Vt_LSkckwSfixEYhkcp6">
        <mxGraphModel dx="2429" dy="714" grid="1" gridSize="8" guides="1" tooltips="1" connect="1" arrows="1" fold="1" page="1" pageScale="1" pageWidth="827" pageHeight="1169" math="0" shadow="0">
            <root>
                <mxCell id="GzQPppVX4bwDmgiL4v9i-0"/>
                <mxCell id="GzQPppVX4bwDmgiL4v9i-1" parent="GzQPppVX4bwDmgiL4v9i-0"/>
                <mxCell id="GzQPppVX4bwDmgiL4v9i-2" value="&lt;font style=&quot;color: rgb(0, 0, 0);&quot;&gt;&lt;span style=&quot;font-size: 23px;&quot;&gt;Web &amp;amp; Mobile Application Development (COM734)&lt;/span&gt;&lt;/font&gt;" style="rounded=1;whiteSpace=wrap;html=1;fillColor=#dae8fc;strokeColor=#6c8ebf;fontSize=23;" vertex="1" parent="GzQPppVX4bwDmgiL4v9i-1">
                    <mxGeometry x="-552" y="184" width="350" height="64" as="geometry"/>
                </mxCell>
                <mxCell id="GzQPppVX4bwDmgiL4v9i-3" value="&lt;p&gt;&lt;font style=&quot;color: rgb(0, 0, 0);&quot;&gt;&lt;span style=&quot;font-size: 23px;&quot;&gt;Emerging Technologies in Software Engineering (COM735)&lt;/span&gt;&lt;/font&gt;&lt;/p&gt;" style="rounded=1;whiteSpace=wrap;html=1;fillColor=#dae8fc;strokeColor=#6c8ebf;fontSize=23;" vertex="1" parent="GzQPppVX4bwDmgiL4v9i-1">
                    <mxGeometry x="-192" y="184" width="352" height="64" as="geometry"/>
                </mxCell>
                <mxCell id="GzQPppVX4bwDmgiL4v9i-4" value="&lt;font style=&quot;font-size: 23px; color: rgb(0, 0, 0);&quot;&gt;Computer Fundamentals &lt;br&gt;&amp;amp; Problem Solving (COM732)&lt;/font&gt;" style="rounded=1;whiteSpace=wrap;html=1;fillColor=#d5e8d4;strokeColor=#82b366;fontSize=23;" vertex="1" parent="GzQPppVX4bwDmgiL4v9i-1">
                    <mxGeometry x="-554" y="104" width="352" height="64" as="geometry"/>
                </mxCell>
                <mxCell id="GzQPppVX4bwDmgiL4v9i-5" value="&lt;font style=&quot;color: rgb(0, 0, 0);&quot;&gt;&lt;span style=&quot;font-size: 23px;&quot;&gt;Software Design &amp;amp;&lt;br&gt;&amp;nbsp;Architecture (COM733)&lt;/span&gt;&lt;/font&gt;" style="rounded=1;whiteSpace=wrap;html=1;fillColor=#d5e8d4;strokeColor=#82b366;fontSize=23;" vertex="1" parent="GzQPppVX4bwDmgiL4v9i-1">
                    <mxGeometry x="-192" y="104" width="352" height="64" as="geometry"/>
                </mxCell>
                <mxCell id="GzQPppVX4bwDmgiL4v9i-6" value="Dissertation&amp;nbsp; (COM726)" style="rounded=1;whiteSpace=wrap;html=1;fillColor=#e1d5e7;strokeColor=#9673a6;fontSize=23;" vertex="1" parent="GzQPppVX4bwDmgiL4v9i-1">
                    <mxGeometry x="-552" y="264" width="712" height="64" as="geometry"/>
                </mxCell>
                <mxCell id="GzQPppVX4bwDmgiL4v9i-7" value="Trimester 2" style="rounded=1;whiteSpace=wrap;html=1;fillColor=#dae8fc;strokeColor=#6c8ebf;fontSize=23;" vertex="1" parent="GzQPppVX4bwDmgiL4v9i-1">
                    <mxGeometry x="-752" y="184" width="190" height="64" as="geometry"/>
                </mxCell>
                <mxCell id="GzQPppVX4bwDmgiL4v9i-8" value="Trimester 1" style="rounded=1;whiteSpace=wrap;html=1;fillColor=#d5e8d4;strokeColor=#82b366;fontSize=23;" vertex="1" parent="GzQPppVX4bwDmgiL4v9i-1">
                    <mxGeometry x="-752" y="104" width="190" height="64" as="geometry"/>
                </mxCell>
                <mxCell id="GzQPppVX4bwDmgiL4v9i-9" value="Trimester 3" style="rounded=1;whiteSpace=wrap;html=1;fillColor=#e1d5e7;strokeColor=#9673a6;fontSize=23;" vertex="1" parent="GzQPppVX4bwDmgiL4v9i-1">
                    <mxGeometry x="-752" y="264" width="190" height="64" as="geometry"/>
                </mxCell>
                <mxCell id="GzQPppVX4bwDmgiL4v9i-10" value="&lt;font style=&quot;font-size: 41px;&quot;&gt;MSc Cyber Security&amp;nbsp; - 30 Credits&lt;/font&gt;" style="text;html=1;align=center;verticalAlign=middle;resizable=0;points=[];autosize=1;strokeColor=none;fillColor=none;" vertex="1" parent="GzQPppVX4bwDmgiL4v9i-1">
                    <mxGeometry x="-752" y="24" width="616" height="72" as="geometry"/>
                </mxCell>
            </root>
        </mxGraphModel>
    </diagram>
</mxfile>